{"glyphs":{"0":{"ha":861,"x_min":0,"x_max":0,"o":"m 472 978 l 389 978 b 111 711 218 978 111 875 l 111 261 b 389 -6 111 96 218 -6 l 472 -6 b 750 261 643 -6 750 96 l 750 711 b 472 978 750 875 643 978 z m 200 257 l 200 715 b 393 892 200 826 269 892 l 468 892 b 661 715 592 892 661 826 l 661 257 b 468 81 661 146 592 81 l 393 81 b 200 257 269 81 200 146 z "},"1":{"ha":367,"x_min":0,"x_max":0,"o":"m 228 0 l 139 0 l 139 972 l 228 972 z "},"2":{"ha":833,"x_min":0,"x_max":0,"o":"m 475 972 l 194 972 l 194 886 l 468 886 b 664 707 593 886 663 821 b 468 529 663 593 593 529 l 358 529 b 83 267 189 529 83 429 l 83 265 b 358 0 83 101 189 0 l 711 0 l 711 86 l 365 86 b 169 265 239 86 169 151 b 365 443 169 379 239 443 l 475 443 b 750 706 644 443 750 543 l 750 707 b 475 972 750 871 644 972 z "},"3":{"ha":833,"x_min":0,"x_max":0,"o":"m 722 706 l 722 707 b 447 972 722 871 617 972 l 97 972 l 97 886 l 440 886 b 636 707 565 886 635 821 b 442 529 635 594 567 529 l 125 529 l 125 443 l 442 443 b 636 265 567 443 635 378 b 440 86 635 151 565 86 l 69 86 l 69 0 l 447 0 b 722 265 617 0 722 101 l 722 267 b 594 485 722 449 594 485 b 722 706 594 485 722 524 z "},"4":{"ha":819,"x_min":0,"x_max":0,"o":"m 681 972 l 592 972 l 592 529 l 324 529 b 131 707 199 529 131 594 l 131 972 l 42 972 l 42 710 b 319 443 42 546 149 443 l 592 443 l 592 0 l 681 0 z "},"5":{"ha":800,"x_min":0,"x_max":0,"o":"m 83 706 l 83 443 l 435 443 b 631 265 561 443 631 379 b 435 86 631 151 561 86 l 83 86 l 83 0 l 442 0 b 717 265 611 0 717 101 l 717 267 b 442 529 717 429 611 529 l 172 529 l 172 710 b 367 886 172 821 242 886 l 654 886 l 654 972 l 361 972 b 83 706 190 972 83 871 z "},"6":{"ha":847,"x_min":0,"x_max":0,"o":"m 489 529 l 200 529 l 200 710 b 394 886 200 821 269 886 l 653 886 l 653 972 l 389 972 b 111 706 218 972 111 871 l 111 263 b 386 -4 111 100 217 -4 l 489 -4 b 764 263 658 -4 764 100 b 489 529 764 426 658 529 z m 200 263 l 200 443 l 482 443 b 678 263 607 443 676 376 b 482 82 676 150 607 82 l 396 82 b 200 263 269 82 200 150 z "},"7":{"ha":607,"x_min":0,"x_max":0,"o":"m 206 972 l 14 972 l 14 886 l 201 886 b 393 710 325 886 393 821 l 393 0 l 482 0 l 482 706 b 206 972 482 869 376 972 z "},"8":{"ha":889,"x_min":0,"x_max":0,"o":"m 778 708 l 778 710 b 503 978 778 871 672 978 l 386 978 b 111 710 217 978 111 871 l 111 708 b 239 485 111 526 239 485 b 111 264 239 485 111 446 l 111 263 b 386 -6 111 101 217 -6 l 503 -6 b 778 263 672 -6 778 101 l 778 264 b 650 485 778 446 651 485 b 778 708 651 485 778 526 z m 197 263 b 392 443 199 375 267 443 l 497 443 b 692 263 622 443 692 375 b 496 79 692 150 622 79 l 393 79 b 197 263 268 79 199 150 z m 197 710 b 393 892 199 821 268 892 l 496 892 b 692 710 622 892 692 821 b 497 529 692 597 622 529 l 392 529 b 197 710 267 529 199 597 z "},"9":{"ha":847,"x_min":0,"x_max":0,"o":"m 358 443 l 647 443 l 647 263 b 453 86 647 151 578 86 l 194 86 l 194 0 l 458 0 b 736 267 629 0 736 101 l 736 710 b 461 976 736 872 631 976 l 358 976 b 83 710 189 976 83 872 b 358 443 83 546 189 443 z m 169 710 b 365 890 171 822 240 890 l 451 890 b 647 710 578 890 647 822 l 647 529 l 365 529 b 169 710 240 529 171 596 z "},"A":{"ha":944,"x_min":0,"x_max":0,"o":"m 125 711 l 125 0 l 214 0 l 214 715 b 407 892 214 826 283 892 l 538 892 b 731 715 661 892 731 826 l 731 357 l 472 357 l 472 271 l 731 271 l 731 0 l 819 0 l 819 711 b 542 978 819 876 713 978 l 403 978 b 125 711 232 978 125 876 z "},"B":{"ha":965,"x_min":0,"x_max":0,"o":"m 854 706 l 854 707 b 579 972 854 871 749 972 l 139 972 l 139 0 l 579 0 b 854 265 749 0 854 101 l 854 267 b 726 485 854 449 726 485 b 854 706 726 485 854 524 z m 228 86 l 228 886 l 572 886 b 768 710 697 886 767 824 b 574 529 767 597 699 529 l 486 529 l 486 443 l 574 443 b 768 263 699 443 767 375 b 572 86 767 149 697 86 z "},"C":{"ha":819,"x_min":0,"x_max":0,"o":"m 200 710 l 200 263 b 393 86 200 150 268 86 l 750 86 l 750 0 l 389 0 b 111 267 218 0 111 101 l 111 706 b 389 972 111 869 218 972 l 750 972 l 750 886 l 393 886 b 200 710 268 886 200 821 z "},"Ç":{"ha":819,"x_min":0,"x_max":0,"o":"m 200 710 l 200 263 b 393 86 200 150 268 86 l 750 86 l 750 0 l 463 0 l 463 1 l 551 1 l 551 -164 l 463 -164 l 463 0 l 389 0 b 111 267 218 0 111 101 l 111 706 b 389 972 111 869 218 972 l 750 972 l 750 886 l 393 886 b 200 710 268 886 200 821 z "},"D":{"ha":944,"x_min":0,"x_max":0,"o":"m 556 972 l 139 972 l 139 0 l 556 0 b 833 267 726 0 833 101 l 833 706 b 556 972 833 869 726 972 z m 228 86 l 228 886 l 551 886 b 744 710 675 886 744 821 l 744 263 b 551 86 744 150 675 86 z "},"E":{"ha":806,"x_min":0,"x_max":0,"o":"m 388 0 b 111 267 217 0 111 101 l 111 706 b 388 972 111 869 217 972 l 750 972 l 750 886 l 393 886 b 200 710 268 886 200 821 l 200 529 l 667 529 l 667 443 l 200 443 l 200 263 b 393 86 200 150 268 86 l 750 86 l 750 0 z "},"F":{"ha":778,"x_min":0,"x_max":0,"o":"m 200 0 l 200 443 l 667 443 l 667 529 l 200 529 l 200 710 b 393 886 200 821 268 886 l 750 886 l 750 972 l 389 972 b 111 706 217 972 111 869 l 111 0 z "},"G":{"ha":917,"x_min":0,"x_max":0,"o":"m 458 529 l 458 443 l 714 443 l 714 86 l 393 86 b 200 263 268 86 200 150 l 200 710 b 393 886 200 821 268 886 l 806 886 l 806 972 l 388 972 b 111 706 217 972 111 869 l 111 267 b 388 0 111 101 217 0 l 803 0 l 803 529 z "},"H":{"ha":972,"x_min":0,"x_max":0,"o":"m 833 972 l 833 0 l 744 0 l 744 443 l 228 443 l 228 0 l 139 0 l 139 972 l 228 972 l 228 529 l 744 529 l 744 972 z "},"I":{"ha":367,"x_min":0,"x_max":0,"o":"m 228 0 l 139 0 l 139 972 l 228 972 z "},"J":{"ha":722,"x_min":0,"x_max":0,"o":"m 508 263 l 508 972 l 597 972 l 597 267 b 321 0 597 101 492 0 l 42 0 l 42 86 l 317 86 b 508 263 440 86 508 150 z "},"K":{"ha":885,"x_min":0,"x_max":0,"o":"m 833 972 l 733 972 l 228 175 l 228 972 l 139 972 l 139 0 l 218 0 l 517 471 l 746 0 l 843 0 l 571 557 z "},"L":{"ha":722,"x_min":0,"x_max":0,"o":"m 214 263 b 406 86 214 150 282 86 l 681 86 l 681 0 l 401 0 b 125 267 231 0 125 101 l 125 972 l 214 972 z "},"M":{"ha":1406,"x_min":0,"x_max":0,"o":"m 125 700 l 125 0 l 214 0 l 214 696 b 388 892 214 819 275 892 l 485 892 b 658 696 597 892 658 819 l 658 0 l 747 0 l 747 696 b 921 892 747 819 808 892 l 1018 892 b 1192 696 1131 892 1192 819 l 1192 0 l 1281 0 l 1281 700 b 1014 978 1281 871 1179 978 l 925 978 b 703 856 825 978 747 939 b 481 978 658 939 581 978 l 392 978 b 125 700 226 978 125 871 z "},"N":{"ha":944,"x_min":0,"x_max":0,"o":"m 125 711 l 125 0 l 214 0 l 214 715 b 407 892 214 826 283 892 l 538 892 b 731 715 661 892 731 826 l 731 0 l 819 0 l 819 711 b 542 978 819 876 713 978 l 403 978 b 125 711 232 978 125 876 z "},"O":{"ha":917,"x_min":0,"x_max":0,"o":"m 528 978 l 389 978 b 111 711 218 978 111 875 l 111 261 b 389 -6 111 96 218 -6 l 528 -6 b 806 261 699 -6 806 96 l 806 711 b 528 978 806 875 699 978 z m 200 257 l 200 715 b 393 892 200 826 269 892 l 524 892 b 717 715 647 892 717 826 l 717 257 b 524 81 717 146 647 81 l 393 81 b 200 257 269 81 200 146 z "},"P":{"ha":917,"x_min":0,"x_max":0,"o":"m 139 0 l 228 0 l 228 886 l 556 886 b 744 706 681 886 744 817 l 744 538 b 556 357 744 426 681 357 l 486 357 l 486 271 l 556 271 b 833 538 726 271 833 372 l 833 706 b 556 972 833 869 726 972 l 139 972 z "},"Q":{"ha":917,"x_min":0,"x_max":0,"o":"m 774 0 l 860 0 l 785 146 b 806 261 799 179 806 218 l 806 711 b 528 978 806 875 699 978 l 389 978 b 111 711 218 978 111 875 l 111 261 b 389 -6 111 96 218 -6 l 528 -6 b 736 71 617 -6 688 22 z m 200 257 l 200 715 b 393 892 200 826 269 892 l 524 892 b 717 715 647 892 717 826 l 717 265 l 633 265 l 690 157 b 524 81 660 107 603 81 l 393 81 b 200 257 269 81 200 146 z "},"R":{"ha":944,"x_min":0,"x_max":0,"o":"m 833 708 l 833 535 b 693 297 833 421 782 338 l 831 0 l 733 0 l 606 274 b 486 271 590 272 568 271 l 486 357 l 549 357 b 744 535 675 357 744 422 l 744 714 b 549 886 744 826 675 886 l 228 886 l 228 0 l 139 0 l 139 972 l 558 972 b 833 708 728 972 833 871 z "},"S":{"ha":875,"x_min":0,"x_max":0,"o":"m 347 972 l 738 972 l 738 886 l 344 886 b 156 708 219 886 156 818 b 344 529 156 597 219 529 l 528 529 b 806 264 699 529 806 428 b 528 0 806 101 699 0 l 94 0 l 94 86 l 531 86 b 719 264 656 86 719 154 b 531 443 719 375 656 443 l 347 443 b 69 708 176 443 69 544 b 347 972 69 871 176 972 z "},"T":{"ha":694,"x_min":0,"x_max":0,"o":"m 667 972 l 28 972 l 28 886 l 303 886 l 303 0 l 392 0 l 392 886 l 667 886 z "},"U":{"ha":944,"x_min":0,"x_max":0,"o":"m 125 972 l 125 261 b 403 -6 125 96 232 -6 l 542 -6 b 819 261 713 -6 819 96 l 819 972 l 731 972 l 731 257 b 538 81 731 146 661 81 l 407 81 b 214 257 283 81 214 146 l 214 972 z "},"V":{"ha":894,"x_min":0,"x_max":0,"o":"m 500 31 l 881 972 l 786 972 l 447 136 l 108 972 l 14 972 l 394 31 b 500 31 415 -22 479 -22 z "},"W":{"ha":1403,"x_min":0,"x_max":0,"o":"m 500 31 l 701 529 l 903 31 b 1008 31 924 -22 988 -22 l 1389 972 l 1297 972 l 956 133 l 753 635 l 888 972 l 799 972 l 701 732 l 604 972 l 515 972 l 650 635 l 447 133 l 106 972 l 14 972 l 394 31 b 500 31 415 -22 479 -22 z "},"X":{"ha":794,"x_min":0,"x_max":0,"o":"m 397 414 l 667 0 l 767 0 l 450 486 l 767 972 l 669 972 l 397 554 l 125 972 l 28 972 l 344 486 l 28 0 l 128 0 z "},"Y":{"ha":843,"x_min":0,"x_max":0,"o":"m 14 972 l 376 315 l 376 0 l 465 0 l 465 310 l 829 972 l 729 972 l 422 410 l 114 972 z "},"Z":{"ha":813,"x_min":0,"x_max":0,"o":"m 757 86 l 757 0 l 56 0 l 56 83 l 635 886 l 69 886 l 69 972 l 743 972 l 743 889 l 164 86 z "},"a":{"ha":944,"x_min":0,"x_max":0,"o":"m 125 711 l 125 0 l 214 0 l 214 715 b 407 892 214 826 283 892 l 538 892 b 731 715 661 892 731 826 l 731 357 l 472 357 l 472 271 l 731 271 l 731 0 l 819 0 l 819 711 b 542 978 819 876 713 978 l 403 978 b 125 711 232 978 125 876 z "},"b":{"ha":965,"x_min":0,"x_max":0,"o":"m 854 706 l 854 707 b 579 972 854 871 749 972 l 139 972 l 139 0 l 579 0 b 854 265 749 0 854 101 l 854 267 b 726 485 854 449 726 485 b 854 706 726 485 854 524 z m 228 86 l 228 886 l 572 886 b 768 710 697 886 767 824 b 574 529 767 597 699 529 l 486 529 l 486 443 l 574 443 b 768 263 699 443 767 375 b 572 86 767 149 697 86 z "},"c":{"ha":819,"x_min":0,"x_max":0,"o":"m 200 710 l 200 263 b 393 86 200 150 268 86 l 750 86 l 750 0 l 389 0 b 111 267 218 0 111 101 l 111 706 b 389 972 111 869 218 972 l 750 972 l 750 886 l 393 886 b 200 710 268 886 200 821 z "},"ç":{"ha":819,"x_min":0,"x_max":0,"o":"m 200 710 l 200 263 b 393 86 200 150 268 86 l 750 86 l 750 0 l 463 0 l 463 1 l 551 1 l 551 -164 l 463 -164 l 463 0 l 389 0 b 111 267 218 0 111 101 l 111 706 b 389 972 111 869 218 972 l 750 972 l 750 886 l 393 886 b 200 710 268 886 200 821 z "},"d":{"ha":944,"x_min":0,"x_max":0,"o":"m 556 972 l 139 972 l 139 0 l 556 0 b 833 267 726 0 833 101 l 833 706 b 556 972 833 869 726 972 z m 228 86 l 228 886 l 551 886 b 744 710 675 886 744 821 l 744 263 b 551 86 744 150 675 86 z "},"e":{"ha":806,"x_min":0,"x_max":0,"o":"m 388 0 b 111 267 217 0 111 101 l 111 706 b 388 972 111 869 217 972 l 750 972 l 750 886 l 393 886 b 200 710 268 886 200 821 l 200 529 l 667 529 l 667 443 l 200 443 l 200 263 b 393 86 200 150 268 86 l 750 86 l 750 0 z "},"f":{"ha":778,"x_min":0,"x_max":0,"o":"m 200 0 l 200 443 l 667 443 l 667 529 l 200 529 l 200 710 b 393 886 200 821 268 886 l 750 886 l 750 972 l 389 972 b 111 706 217 972 111 869 l 111 0 z "},"g":{"ha":917,"x_min":0,"x_max":0,"o":"m 458 529 l 458 443 l 714 443 l 714 86 l 393 86 b 200 263 268 86 200 150 l 200 710 b 393 886 200 821 268 886 l 806 886 l 806 972 l 388 972 b 111 706 217 972 111 869 l 111 267 b 388 0 111 101 217 0 l 803 0 l 803 529 z "},"h":{"ha":972,"x_min":0,"x_max":0,"o":"m 833 972 l 833 0 l 744 0 l 744 443 l 228 443 l 228 0 l 139 0 l 139 972 l 228 972 l 228 529 l 744 529 l 744 972 z "},"i":{"ha":367,"x_min":0,"x_max":0,"o":"m 228 0 l 139 0 l 139 972 l 228 972 z "},"j":{"ha":722,"x_min":0,"x_max":0,"o":"m 508 263 l 508 972 l 597 972 l 597 267 b 321 0 597 101 492 0 l 42 0 l 42 86 l 317 86 b 508 263 440 86 508 150 z "},"k":{"ha":885,"x_min":0,"x_max":0,"o":"m 833 972 l 733 972 l 228 175 l 228 972 l 139 972 l 139 0 l 218 0 l 517 471 l 746 0 l 843 0 l 571 557 z "},"l":{"ha":722,"x_min":0,"x_max":0,"o":"m 214 263 b 406 86 214 150 282 86 l 681 86 l 681 0 l 401 0 b 125 267 231 0 125 101 l 125 972 l 214 972 z "},"m":{"ha":1406,"x_min":0,"x_max":0,"o":"m 125 700 l 125 0 l 214 0 l 214 696 b 388 892 214 819 275 892 l 485 892 b 658 696 597 892 658 819 l 658 0 l 747 0 l 747 696 b 921 892 747 819 808 892 l 1018 892 b 1192 696 1131 892 1192 819 l 1192 0 l 1281 0 l 1281 700 b 1014 978 1281 871 1179 978 l 925 978 b 703 856 825 978 747 939 b 481 978 658 939 581 978 l 392 978 b 125 700 226 978 125 871 z "},"n":{"ha":944,"x_min":0,"x_max":0,"o":"m 125 711 l 125 0 l 214 0 l 214 715 b 407 892 214 826 283 892 l 538 892 b 731 715 661 892 731 826 l 731 0 l 819 0 l 819 711 b 542 978 819 876 713 978 l 403 978 b 125 711 232 978 125 876 z "},"o":{"ha":917,"x_min":0,"x_max":0,"o":"m 528 978 l 389 978 b 111 711 218 978 111 875 l 111 261 b 389 -6 111 96 218 -6 l 528 -6 b 806 261 699 -6 806 96 l 806 711 b 528 978 806 875 699 978 z m 200 257 l 200 715 b 393 892 200 826 269 892 l 524 892 b 717 715 647 892 717 826 l 717 257 b 524 81 717 146 647 81 l 393 81 b 200 257 269 81 200 146 z "},"p":{"ha":917,"x_min":0,"x_max":0,"o":"m 139 0 l 228 0 l 228 886 l 556 886 b 744 706 681 886 744 817 l 744 538 b 556 357 744 426 681 357 l 486 357 l 486 271 l 556 271 b 833 538 726 271 833 372 l 833 706 b 556 972 833 869 726 972 l 139 972 z "},"q":{"ha":917,"x_min":0,"x_max":0,"o":"m 774 0 l 860 0 l 785 146 b 806 261 799 179 806 218 l 806 711 b 528 978 806 875 699 978 l 389 978 b 111 711 218 978 111 875 l 111 261 b 389 -6 111 96 218 -6 l 528 -6 b 736 71 617 -6 688 22 z m 200 257 l 200 715 b 393 892 200 826 269 892 l 524 892 b 717 715 647 892 717 826 l 717 265 l 633 265 l 690 157 b 524 81 660 107 603 81 l 393 81 b 200 257 269 81 200 146 z "},"r":{"ha":944,"x_min":0,"x_max":0,"o":"m 833 708 l 833 535 b 693 297 833 421 782 338 l 831 0 l 733 0 l 606 274 b 486 271 590 272 568 271 l 486 357 l 549 357 b 744 535 675 357 744 422 l 744 714 b 549 886 744 826 675 886 l 228 886 l 228 0 l 139 0 l 139 972 l 558 972 b 833 708 728 972 833 871 z "},"s":{"ha":875,"x_min":0,"x_max":0,"o":"m 347 972 l 738 972 l 738 886 l 344 886 b 156 708 219 886 156 818 b 344 529 156 597 219 529 l 528 529 b 806 264 699 529 806 428 b 528 0 806 101 699 0 l 94 0 l 94 86 l 531 86 b 719 264 656 86 719 154 b 531 443 719 375 656 443 l 347 443 b 69 708 176 443 69 544 b 347 972 69 871 176 972 z "},"t":{"ha":694,"x_min":0,"x_max":0,"o":"m 667 972 l 28 972 l 28 886 l 303 886 l 303 0 l 392 0 l 392 886 l 667 886 z "},"u":{"ha":944,"x_min":0,"x_max":0,"o":"m 125 972 l 125 261 b 403 -6 125 96 232 -6 l 542 -6 b 819 261 713 -6 819 96 l 819 972 l 731 972 l 731 257 b 538 81 731 146 661 81 l 407 81 b 214 257 283 81 214 146 l 214 972 z "},"v":{"ha":894,"x_min":0,"x_max":0,"o":"m 500 31 l 881 972 l 786 972 l 447 136 l 108 972 l 14 972 l 394 31 b 500 31 415 -22 479 -22 z "},"w":{"ha":1403,"x_min":0,"x_max":0,"o":"m 500 31 l 701 529 l 903 31 b 1008 31 924 -22 988 -22 l 1389 972 l 1297 972 l 956 133 l 753 635 l 888 972 l 799 972 l 701 732 l 604 972 l 515 972 l 650 635 l 447 133 l 106 972 l 14 972 l 394 31 b 500 31 415 -22 479 -22 z "},"x":{"ha":794,"x_min":0,"x_max":0,"o":"m 397 414 l 667 0 l 767 0 l 450 486 l 767 972 l 669 972 l 397 554 l 125 972 l 28 972 l 344 486 l 28 0 l 128 0 z "},"y":{"ha":843,"x_min":0,"x_max":0,"o":"m 14 972 l 376 315 l 376 0 l 465 0 l 465 310 l 829 972 l 729 972 l 422 410 l 114 972 z "},"z":{"ha":813,"x_min":0,"x_max":0,"o":"m 757 86 l 757 0 l 56 0 l 56 83 l 635 886 l 69 886 l 69 972 l 743 972 l 743 889 l 164 86 z "},".":{"ha":311,"x_min":0,"x_max":0,"o":"m 111 89 l 111 0 l 200 0 l 200 89 z "},",":{"ha":311,"x_min":0,"x_max":0,"o":"m 111 0 l 151 0 l 124 -44 l 174 -44 l 200 0 l 200 89 l 111 89 z "},"!":{"ha":367,"x_min":0,"x_max":0,"o":"m 228 178 l 139 178 l 139 972 l 228 972 z m 139 0 l 228 0 l 228 89 l 139 89 z "},"?":{"ha":786,"x_min":0,"x_max":0,"o":"m 586 715 l 586 688 b 493 540 586 640 576 590 b 314 288 379 472 314 413 l 314 178 l 403 178 l 403 288 b 533 465 403 336 408 392 b 675 688 624 515 675 583 l 675 711 b 399 978 675 875 569 978 l 389 978 b 111 711 218 978 111 875 l 111 686 l 200 686 l 200 715 b 393 892 200 826 269 892 b 586 715 518 892 586 826 z m 314 0 l 403 0 l 403 89 l 314 89 z "}}}
